<svg xmlns="http://www.w3.org/2000/svg" width="219.786" height="219.781" viewBox="0 0 219.786 219.781">
  <g id="Day" transform="translate(0 -0.003)">
    <path id="Path_1" data-name="Path 1" d="M109.881,183.46a7.5,7.5,0,0,0-7.5,7.5v21.324a7.5,7.5,0,0,0,15,0V190.96A7.5,7.5,0,0,0,109.881,183.46Z" fill="#fff"/>
    <path id="Path_2" data-name="Path 2" d="M109.881,36.329a7.5,7.5,0,0,0,7.5-7.5V7.5a7.5,7.5,0,0,0-15,0V28.829A7.5,7.5,0,0,0,109.881,36.329Z" fill="#fff"/>
    <path id="Path_3" data-name="Path 3" d="M47.269,161.909,32.185,176.985a7.5,7.5,0,0,0,10.6,10.609l15.084-15.076a7.5,7.5,0,1,0-10.6-10.609Z" fill="#fff"/>
    <path id="Path_4" data-name="Path 4" d="M167.208,60.067a7.479,7.479,0,0,0,5.3-2.2L187.593,42.8a7.5,7.5,0,1,0-10.6-10.608L161.906,47.263a7.5,7.5,0,0,0,5.3,12.8Z" fill="#fff"/>
    <path id="Path_5" data-name="Path 5" d="M36.324,109.895a7.5,7.5,0,0,0-7.5-7.5H7.5a7.5,7.5,0,0,0,0,15H28.824A7.5,7.5,0,0,0,36.324,109.895Z" fill="#fff"/>
    <path id="Path_6" data-name="Path 6" d="M212.286,102.395H190.952a7.5,7.5,0,1,0,0,15h21.334a7.5,7.5,0,1,0,0-15Z" fill="#fff"/>
    <path id="Path_7" data-name="Path 7" d="M47.267,57.871A7.5,7.5,0,1,0,57.873,47.264L42.8,32.188A7.5,7.5,0,0,0,32.191,42.794Z" fill="#fff"/>
    <path id="Path_8" data-name="Path 8" d="M172.52,161.911a7.5,7.5,0,0,0-10.608,10.6l15.074,15.076a7.5,7.5,0,0,0,10.608-10.6Z" fill="#fff"/>
    <path id="Path_9" data-name="Path 9" d="M109.889,51.518A58.376,58.376,0,1,0,168.267,109.9,58.441,58.441,0,0,0,109.889,51.518Zm0,101.752A43.376,43.376,0,1,1,153.267,109.9,43.423,43.423,0,0,1,109.889,153.27Z" fill="#fff"/>
  </g>
</svg>
