<svg xmlns="http://www.w3.org/2000/svg" width="30" height="30" viewBox="0 0 30 30">
  <g id="Group_174907" data-name="Group 174907" transform="translate(22443 22197)">
    <path id="Path_56883" data-name="Path 56883" d="M15,0A15,15,0,1,1,0,15,15,15,0,0,1,15,0Z" transform="translate(-22443 -22197)" fill="#fff"/>
    <g id="Group_174915" data-name="Group 174915" transform="translate(-22443 -22197)">
      <path id="Path_56887" data-name="Path 56887" d="M15,0A14.992,14.992,0,1,0,25.609,4.391,15,15,0,0,0,15,0Zm5.5,21.548H9.5a1.047,1.047,0,1,1,0-2.093h11a1.047,1.047,0,0,1,0,2.093Zm0-5.5H9.5a1.047,1.047,0,0,1,0-2.093h11a1.047,1.047,0,1,1,0,2.093Zm0-5.5H9.5a1.047,1.047,0,0,1,0-2.093h11a1.047,1.047,0,1,1,0,2.093Z"/>
    </g>
  </g>
</svg>
