<svg xmlns="http://www.w3.org/2000/svg" width="202.749" height="202.721" viewBox="0 0 202.749 202.721">
  <path id="Night" d="M199.876,119.867a7.5,7.5,0,0,0-8.366-.6,78.511,78.511,0,0,1-39.489,10.889,79.531,79.531,0,0,1-79.44-79.443A77.788,77.788,0,0,1,83.487,11.279,7.5,7.5,0,0,0,74.922.309,104.892,104.892,0,0,0,21.293,36.75,101.525,101.525,0,0,0,0,99.3,103.554,103.554,0,0,0,103.434,202.735a101.6,101.6,0,0,0,62.561-21.286,104.825,104.825,0,0,0,36.459-53.6A7.5,7.5,0,0,0,199.876,119.867Zm-96.442,67.867A88.536,88.536,0,0,1,15,99.3c0-32.9,18.825-62.836,47.436-77.882a90.487,90.487,0,0,0-4.855,29.3,94.549,94.549,0,0,0,94.44,94.443,90.769,90.769,0,0,0,29.347-4.873C166.324,168.9,136.36,187.734,103.434,187.734Z" transform="translate(0 -0.014)" fill="#fff"/>
</svg>
